<?xml version="1.0" encoding="UTF-8" standalone="no"?><!DOCTYPE svg PUBLIC "-//W3C//DTD SVG 1.1//EN" "http://www.w3.org/Graphics/SVG/1.1/DTD/svg11.dtd"><svg width="100%" height="100%" viewBox="0 0 788 230" version="1.1" xmlns="http://www.w3.org/2000/svg" xmlns:xlink="http://www.w3.org/1999/xlink" xml:space="preserve" xmlns:serif="http://www.serif.com/" style="fill-rule:evenodd;clip-rule:evenodd;stroke-linejoin:round;stroke-miterlimit:1.41421;"><g><path d="M545.067,97.085c0,-4.74 -0.898,-9.151 -2.672,-13.113c-1.766,-3.943 -4.114,-7.358 -6.979,-10.149c-2.869,-2.79 -6.155,-4.988 -9.764,-6.53c-3.634,-1.552 -7.358,-2.338 -11.074,-2.338c-4.853,0 -9.449,1.231 -13.662,3.66c-4.175,2.41 -7.866,5.793 -10.971,10.059c-3.083,4.232 -5.551,9.371 -7.335,15.273c-1.774,5.877 -2.673,12.408 -2.673,19.413c0,7.513 0.99,14.665 2.944,21.261c1.958,6.617 4.679,12.467 8.085,17.387c3.426,4.954 7.496,8.929 12.097,11.809c4.657,2.913 9.708,4.392 15.01,4.392c2.569,0 5.156,-0.346 7.689,-1.024c2.5,-0.673 4.926,-1.583 7.212,-2.708c2.271,-1.115 4.447,-2.439 6.468,-3.934c2.031,-1.508 3.817,-3.104 5.31,-4.751l0.315,-0.348l0,-58.359Zm0,-96.168l20.722,0l0,175.012l-20.722,0l0,-12.804l-1.984,1.608c-2.621,2.127 -5.498,4.05 -8.555,5.722c-3.068,1.676 -6.296,3.119 -9.599,4.289c-3.312,1.175 -6.705,2.097 -10.088,2.739c-3.355,0.636 -6.678,0.959 -9.876,0.959c-6.682,0 -13.012,-1.567 -18.814,-4.661c-5.839,-3.114 -11.007,-7.385 -15.359,-12.697c-4.37,-5.33 -7.867,-11.601 -10.392,-18.644c-2.525,-7.043 -3.806,-14.587 -3.806,-22.419c0,-5.178 0.738,-10.355 2.192,-15.39c1.457,-5.048 3.513,-9.902 6.113,-14.422c2.594,-4.515 5.769,-8.754 9.435,-12.601c3.667,-3.842 7.796,-7.213 12.273,-10.021c4.477,-2.806 9.323,-5.021 14.403,-6.584c5.065,-1.56 10.438,-2.349 15.971,-2.349c5.471,0 10.333,0.971 14.45,2.888c4.175,1.951 8.079,4.547 11.604,7.721l2.032,1.831l0,-70.177Zm238.143,158.944c-1.523,1.634 -3.269,3.041 -5.205,4.193c-2.337,1.38 -4.952,2.08 -7.776,2.08c-1.897,0 -3.727,-0.363 -5.441,-1.08c-1.705,-0.715 -3.197,-1.703 -4.433,-2.938c-1.228,-1.227 -2.214,-2.695 -2.933,-4.367c-0.717,-1.68 -1.081,-3.494 -1.081,-5.395l0,-85.044l26.323,0l0,-7.397l-26.323,0l0,-40.083l-4.444,0c-1.128,5.637 -2.429,11.032 -3.873,16.047c-1.556,5.413 -3.74,10.25 -6.491,14.375c-2.793,4.187 -6.426,7.551 -10.795,9.996c-4.12,2.312 -9.344,3.551 -15.543,3.694l0,3.368l20.315,0l0,85.044c0,3.952 0.444,7.593 1.322,10.823c0.865,3.178 2.208,5.933 3.99,8.194c1.763,2.236 4.017,3.992 6.702,5.215c2.701,1.231 5.967,1.856 9.707,1.856c7.311,0 13.528,-1.521 18.483,-4.522c4.658,-2.819 8.504,-6.643 11.446,-11.374l-3.95,-2.685Zm-97.089,-32.629c0,-8.557 -0.745,-16.666 -2.212,-24.101c-1.475,-7.498 -3.913,-14.151 -7.246,-19.774c-3.358,-5.675 -7.798,-10.21 -13.197,-13.475c-5.406,-3.268 -12.121,-4.927 -19.96,-4.927c-4.14,0 -8.178,1.202 -12.001,3.57c-3.765,2.334 -7.136,5.566 -10.018,9.612c-2.867,4.023 -5.182,8.765 -6.886,14.098c-1.705,5.336 -2.57,11.083 -2.57,17.081c0,8.583 0.931,16.765 2.765,24.319c1.841,7.593 4.536,14.309 8.011,19.959c3.5,5.699 7.889,10.273 13.043,13.602c5.204,3.353 11.161,5.052 17.704,5.052c4.792,0 9.252,-1.254 13.255,-3.731c3.943,-2.439 7.406,-5.749 10.292,-9.835c2.871,-4.064 5.118,-8.872 6.68,-14.291c1.552,-5.418 2.34,-11.19 2.34,-17.159Zm19.238,-34.189c3.013,6.846 4.541,14.27 4.541,22.064c0,8.683 -1.535,16.968 -4.559,24.621c-3.022,7.647 -7.294,14.426 -12.694,20.143c-5.401,5.722 -11.867,10.299 -19.221,13.598c-7.343,3.301 -15.5,4.973 -24.244,4.973c-8.751,0 -16.955,-1.548 -24.384,-4.606c-7.429,-3.054 -13.912,-7.268 -19.272,-12.522c-5.357,-5.249 -9.604,-11.495 -12.621,-18.559c-3.016,-7.058 -4.545,-14.705 -4.545,-22.734c0,-8.467 1.533,-16.525 4.553,-23.952c3.023,-7.431 7.274,-13.987 12.633,-19.488c5.361,-5.502 11.845,-9.915 19.27,-13.111c7.421,-3.197 15.618,-4.816 24.366,-4.816c8.76,0 16.934,1.477 24.294,4.392c7.356,2.916 13.823,6.966 19.222,12.041c5.389,5.074 9.65,11.116 12.661,17.956Zm-538.012,-78.146c0,7.12 -5.793,12.913 -12.914,12.913c-7.121,0 -12.914,-5.793 -12.914,-12.913c0,-7.121 5.793,-12.914 12.914,-12.914c7.121,0 12.914,5.793 12.914,12.914Z" style="fill:#de5844;fill-rule:nonzero;"/><path d="M87.491,104.186c0,-5.856 -0.81,-11.363 -2.407,-16.372c-1.599,-5.019 -3.809,-9.457 -6.57,-13.188c-2.779,-3.757 -6.062,-6.754 -9.759,-8.906c-3.743,-2.175 -7.771,-3.278 -11.973,-3.278c-4.129,0 -7.768,0.883 -10.815,2.622c-3.03,1.722 -5.559,4.113 -7.517,7.108c-1.924,2.943 -3.359,6.458 -4.264,10.447c-0.889,3.924 -1.339,8.205 -1.339,12.721c0,5.402 0.676,10.511 2.011,15.186c1.34,4.694 3.255,8.839 5.689,12.325c2.459,3.517 5.456,6.32 8.906,8.328c3.481,2.028 7.381,3.058 11.589,3.058c3.447,0 6.824,-0.795 10.037,-2.361c3.185,-1.554 6.031,-3.727 8.459,-6.456c2.414,-2.718 4.362,-5.927 5.792,-9.535c1.433,-3.624 2.161,-7.559 2.161,-11.699Zm-61.033,75.579c-1.356,1.653 -2.525,3.434 -3.473,5.294c-0.944,1.846 -1.674,3.727 -2.169,5.594c-0.498,1.873 -0.751,3.687 -0.751,5.392c0,2.888 1.024,5.673 3.041,8.281c1.963,2.539 4.898,4.788 8.723,6.682c3.754,1.856 8.504,3.362 14.122,4.471c5.592,1.104 12.175,1.664 19.569,1.664c7.827,0 14.964,-0.634 21.211,-1.884c6.264,-1.254 11.652,-2.938 16.013,-5.006c4.424,-2.102 7.861,-4.495 10.214,-7.115c2.454,-2.73 3.697,-5.56 3.697,-8.404c0,-5.736 -2.865,-9.967 -8.516,-12.576c-5.346,-2.466 -12.702,-3.716 -21.866,-3.716c-5.499,0 -11.214,-0.128 -16.986,-0.38c-5.843,-0.262 -11.251,-0.575 -16.075,-0.927c-4.972,-0.363 -9.368,-0.749 -13.066,-1.143c-3.722,-0.399 -6.393,-0.742 -7.94,-1.024l-0.523,-0.096l-0.425,0.319c-1.82,1.363 -3.435,2.903 -4.8,4.574Zm98.467,-113.834l0,8.527l-23.454,0l0.765,1.054c1.744,2.244 3.338,4.857 4.652,7.876c0.157,0.349 0.315,0.698 0.463,1.054c0.051,0.129 0.114,0.243 0.164,0.374c0.083,0.215 0.141,0.398 0.215,0.601c0.184,0.473 0.382,0.936 0.551,1.42c1.33,3.821 2.006,7.674 2.006,11.449c0,5.883 -1.31,11.292 -3.895,16.076c-2.6,4.814 -6.27,9.019 -10.91,12.499c-4.671,3.5 -10.329,6.246 -16.816,8.156c-6.526,1.928 -13.815,2.903 -21.666,2.903c-2.828,0 -5.793,-0.251 -8.813,-0.749c-3.027,-0.497 -5.667,-1.109 -7.851,-1.814l-0.626,-0.203l-0.512,0.413c-2.351,1.896 -4.35,4.128 -5.943,6.63c-1.649,2.592 -2.485,5.273 -2.485,7.972c0,2.794 1.514,5.061 4.499,6.741c2.742,1.546 6.587,2.408 11.426,2.559l43.459,1.856c6.796,0.289 12.525,1.099 17.023,2.408c4.449,1.3 8.039,3.028 10.668,5.136c2.572,2.066 4.409,4.587 5.459,7.49c1.076,2.985 1.621,6.336 1.621,9.963c0,6.598 -1.544,12.643 -4.591,17.966c-3.055,5.336 -7.552,9.954 -13.368,13.727c-5.858,3.799 -13.102,6.777 -21.529,8.851c-8.456,2.079 -18.17,3.134 -28.873,3.134c-19.104,0 -33.543,-2.169 -42.914,-6.446c-9.185,-4.19 -13.65,-9.509 -13.65,-16.259c0,-2.988 0.76,-5.918 2.259,-8.706c1.539,-2.875 3.556,-5.677 5.995,-8.331c2.468,-2.682 5.238,-5.287 8.231,-7.743c3.082,-2.534 6.123,-4.971 9.042,-7.245l1.858,-1.449l-2.257,-0.677c-2.116,-0.636 -4.085,-1.418 -5.856,-2.324c-1.758,-0.894 -3.288,-1.917 -4.551,-3.043c-1.243,-1.112 -2.243,-2.331 -2.973,-3.623c-0.702,-1.246 -1.043,-2.569 -1.043,-4.046c0,-2.204 0.582,-4.503 1.73,-6.833c1.178,-2.389 2.837,-4.734 4.931,-6.969c2.112,-2.253 4.595,-4.342 7.382,-6.213c2.787,-1.869 5.809,-3.425 8.982,-4.625l2.847,-1.078l-2.805,-1.183c-7.696,-3.243 -13.774,-7.833 -18.063,-13.635c-4.263,-5.765 -6.424,-12.485 -6.424,-19.975c0,-5.533 1.295,-10.837 3.85,-15.768c2.573,-4.969 6.145,-9.363 10.616,-13.056c4.491,-3.715 9.878,-6.693 16.015,-8.855c6.133,-2.167 12.813,-3.264 19.856,-3.264c3.422,0 6.856,0.235 10.21,0.699c3.362,0.465 6.531,1.08 9.418,1.829c1.959,0.508 3.769,1.082 5.433,1.705l-0.002,-0.01c0,0 2.835,0.842 6.606,3.054l33.638,0Zm324.407,-3.329c-1.529,-1.19 -3.341,-2.154 -5.388,-2.87c-2.043,-0.715 -4.296,-1.078 -6.698,-1.078c-2.951,0 -5.894,0.627 -8.745,1.865c-2.902,1.258 -5.768,3.003 -8.52,5.189c-2.763,2.196 -5.467,4.79 -8.034,7.714c-2.588,2.949 -5.021,6.07 -7.231,9.281l-2.221,3.226l0,-26.016l-20.721,0l0,116.016l20.721,0l0,-80.386l0.179,-0.294c1.597,-2.613 3.231,-5.084 4.858,-7.343c1.632,-2.261 3.267,-4.251 4.858,-5.914c1.632,-1.71 3.303,-3.069 4.965,-4.036c1.746,-1.015 3.513,-1.531 5.254,-1.531c2.127,0 3.939,0.309 5.383,0.915c1.336,0.556 2.68,1.197 3.991,1.911c1.222,0.66 2.595,1.258 4.079,1.776c1.43,0.497 3.408,0.749 5.88,0.749c3.919,0 6.986,-0.881 9.117,-2.62c2.086,-1.699 3.1,-4.195 3.1,-7.628c0,-1.678 -0.426,-3.299 -1.267,-4.818c-0.864,-1.56 -2.062,-2.942 -3.56,-4.108Zm-110.407,44.491l-1.595,0.52c-3.326,1.084 -6.855,2.343 -10.49,3.735c-3.628,1.393 -7.228,2.972 -10.699,4.69c-3.498,1.731 -6.863,3.627 -10,5.636c-3.18,2.03 -6.017,4.23 -8.432,6.533c-2.45,2.339 -4.419,4.864 -5.855,7.509c-1.474,2.718 -2.222,5.596 -2.222,8.553c0,2.989 0.563,5.883 1.674,8.601c1.102,2.698 2.592,5.097 4.429,7.127c1.85,2.041 4.014,3.677 6.429,4.862c2.45,1.208 5.038,1.821 7.691,1.821c2.732,0 5.364,-0.367 7.824,-1.089c2.435,-0.713 4.826,-1.68 7.104,-2.873c2.261,-1.187 4.549,-2.595 6.8,-4.183c2.228,-1.566 4.513,-3.236 6.854,-4.989l0.488,-0.367l0,-46.086Zm18.833,-30.877c1.397,3.702 2.106,7.856 2.106,12.347l0,87.366l-20.939,0l0,-17.297l-1.956,1.493c-2.763,2.108 -5.512,4.285 -8.171,6.469c-2.6,2.137 -5.452,4.123 -8.474,5.902c-2.993,1.759 -6.358,3.209 -10.002,4.306c-3.618,1.088 -7.892,1.64 -12.701,1.64c-4.404,0 -8.44,-0.724 -11.998,-2.15c-3.541,-1.422 -6.601,-3.408 -9.095,-5.904c-2.489,-2.488 -4.418,-5.468 -5.734,-8.864c-1.322,-3.406 -1.992,-7.154 -1.992,-11.135c0,-4.813 0.968,-9.209 2.875,-13.06c1.928,-3.891 4.596,-7.427 7.93,-10.514c3.37,-3.121 7.364,-5.928 11.873,-8.342c4.57,-2.445 9.464,-4.664 14.548,-6.596c5.104,-1.944 10.453,-3.696 15.895,-5.21c5.448,-1.514 10.858,-2.945 16.08,-4.251l0.922,-0.231l0,-8.267c0,-5.399 -0.549,-10.051 -1.631,-13.826c-1.101,-3.832 -2.711,-6.983 -4.784,-9.363c-2.099,-2.41 -4.678,-4.163 -7.67,-5.212c-2.919,-1.024 -6.234,-1.544 -9.851,-1.544c-4.075,0 -7.465,0.546 -10.076,1.621c-2.646,1.091 -4.768,2.564 -6.309,4.382c-1.543,1.82 -2.602,3.92 -3.151,6.24c-0.528,2.225 -0.797,4.505 -0.797,6.778c0,1.957 -0.159,3.872 -0.474,5.691c-0.3,1.732 -0.851,3.259 -1.639,4.54c-0.763,1.242 -1.816,2.259 -3.128,3.027c-1.297,0.759 -3.019,1.143 -5.119,1.143c-1.64,0 -3.138,-0.31 -4.456,-0.923c-1.335,-0.616 -2.504,-1.489 -3.478,-2.594c-0.986,-1.116 -1.751,-2.45 -2.276,-3.962c-0.535,-1.536 -0.806,-3.239 -0.806,-5.065c0,-3.57 1.203,-6.96 3.575,-10.074c2.435,-3.201 5.764,-6.015 9.899,-8.362c4.178,-2.375 9.146,-4.279 14.764,-5.665c5.631,-1.391 11.634,-2.096 17.84,-2.096c7.569,0 14.036,0.736 19.222,2.192c5.131,1.443 9.317,3.48 12.445,6.049c3.092,2.544 5.357,5.68 6.733,9.321Zm-103.543,-13.614c-1.529,-1.19 -3.342,-2.154 -5.389,-2.87c-2.042,-0.715 -4.295,-1.078 -6.698,-1.078c-2.951,0 -5.893,0.627 -8.745,1.865c-2.902,1.258 -5.769,3.003 -8.519,5.189c-2.764,2.196 -5.467,4.79 -8.034,7.714c-2.588,2.949 -5.021,6.07 -7.232,9.281l-2.22,3.226l0,-26.016l-20.721,0l0,116.016l20.721,0l0,-80.386l0.178,-0.294c1.597,-2.613 3.231,-5.084 4.859,-7.343c1.637,-2.267 3.273,-4.257 4.858,-5.914c1.631,-1.71 3.302,-3.069 4.965,-4.036c1.746,-1.015 3.513,-1.531 5.254,-1.531c2.126,0 3.939,0.309 5.383,0.915c1.341,0.558 2.683,1.2 3.99,1.911c1.223,0.66 2.595,1.258 4.08,1.776c1.43,0.497 3.408,0.749 5.88,0.749c3.918,0 6.986,-0.881 9.117,-2.62c2.086,-1.699 3.1,-4.195 3.1,-7.628c0,-1.68 -0.426,-3.299 -1.267,-4.818c-0.864,-1.56 -2.063,-2.942 -3.56,-4.108Zm-110.143,-2.689l20.722,0l0,116.016l-20.722,0l0,-116.016Z" style="fill:#4e4946;fill-rule:nonzero;"/></g></svg>